<?xml version="1.0" encoding="utf-8"?>
<!-- Generator: Adobe Illustrator 24.0.0, SVG Export Plug-In . SVG Version: 6.00 Build 0)  -->
<svg version="1.1" id="Layer_1" xmlns="http://www.w3.org/2000/svg" xmlns:xlink="http://www.w3.org/1999/xlink" x="0px" y="0px"
	 viewBox="0 0 256 256" style="enable-background:new 0 0 256 256;" xml:space="preserve">
<style type="text/css">
	.st0{fill:#382B73;}
	.st1{fill:#291B4A;}
	.st2{fill:#ED9ABC;}
	.st3{fill:#E54890;}
	.st4{fill:#D3D3D3;}
	.st5{fill:#EBE7F2;}
	.st6{fill:#F9B087;}
	.st7{fill:#FF8639;}
	.st8{fill:#65C1D6;}
	.st9{fill:#149CB2;}
</style>
<g>
	<g>
		<g>
			<g>
				<g>
					
						<ellipse transform="matrix(0.7071 -0.7071 0.7071 0.7071 -53.0193 128)" class="st0" cx="128" cy="128" rx="119.4" ry="119.4"/>
				</g>
			</g>
		</g>
	</g>
	<g>
		<g>
			<g>
				<g>
					<path class="st1" d="M44.036,180.477c4.933,8.544,15.652,13.043,30.664,13.043c3.207,0,6.61-0.206,10.194-0.621
						c2.818-0.326,5.711-0.791,8.655-1.36c7.862,22.897,20.258,37.414,34.452,37.414c14.194,0,26.59-14.517,34.453-37.414
						c2.943,0.569,5.837,1.034,8.654,1.36c3.585,0.415,6.986,0.621,10.194,0.621c15.009,0,25.73-4.5,30.663-13.043
						c5.986-10.369,2.553-25.141-9.67-41.595c-1.708-2.299-3.577-4.595-5.564-6.882c1.987-2.287,3.856-4.583,5.564-6.882
						c12.223-16.454,15.656-31.226,9.67-41.595s-20.495-14.778-40.857-12.423c-2.817,0.326-5.711,0.791-8.654,1.36
						C154.59,49.563,142.194,35.046,128,35.046c-14.194,0-26.59,14.517-34.452,37.414c-2.944-0.57-5.837-1.034-8.655-1.36
						c-20.364-2.355-34.871,2.054-40.857,12.423s-2.552,25.141,9.67,41.595c1.708,2.299,3.577,4.595,5.564,6.882
						c-1.987,2.287-3.856,4.583-5.564,6.882C41.483,155.335,38.049,170.107,44.036,180.477z M91.57,160.234
						c4.707,3.24,9.631,6.361,14.75,9.317c5.14,2.967,10.326,5.681,15.506,8.146c-8.461,3.458-16.786,6.145-24.737,7.98
						C94.729,177.971,92.85,169.397,91.57,160.234z M90.755,153.547c-0.726-6.938-1.115-14.157-1.115-21.547
						s0.389-14.609,1.115-21.547c5.672-4.089,11.715-8.007,18.065-11.673c6.362-3.673,12.79-6.954,19.18-9.826
						c6.39,2.872,12.818,6.152,19.18,9.826c6.35,3.666,12.393,7.585,18.066,11.674c0.726,6.938,1.115,14.156,1.115,21.547
						s-0.389,14.609-1.115,21.547c-5.672,4.089-11.716,8.008-18.066,11.674c-6.362,3.673-12.79,6.954-19.18,9.826
						c-6.39-2.872-12.818-6.152-19.18-9.826C102.47,161.555,96.427,157.636,90.755,153.547z M128,223.954
						c-11.63,0-22.249-13.176-29.352-33.509c9.426-2.21,19.334-5.562,29.351-9.931c10.017,4.369,19.926,7.721,29.352,9.931
						C150.25,210.777,139.63,223.954,128,223.954z M158.912,185.677c-7.952-1.836-16.277-4.522-24.738-7.98
						c5.18-2.464,10.367-5.178,15.506-8.146c5.119-2.955,10.043-6.077,14.751-9.317C163.15,169.397,161.272,177.971,158.912,185.677
						z M198.28,141.864c10.8,14.539,14.21,27.702,9.354,36.113s-17.961,12.039-35.952,9.956c-2.506-0.29-5.073-0.689-7.686-1.181
						c2.751-9.133,4.818-19.418,6.051-30.519c8.808-6.505,16.678-13.426,23.31-20.5C195.11,137.771,196.76,139.817,198.28,141.864z
						 M170.686,114.518c7.243,5.614,13.746,11.497,19.319,17.482c-5.573,5.985-12.076,11.869-19.319,17.482
						c0.443-5.657,0.674-11.498,0.674-17.482S171.129,120.175,170.686,114.518z M171.682,76.067
						c3.333-0.386,6.496-0.576,9.472-0.576c13.09,0,22.523,3.679,26.48,10.532c4.856,8.411,1.446,21.574-9.354,36.113
						c-1.521,2.047-3.17,4.093-4.923,6.131c-6.632-7.074-14.502-13.995-23.31-20.5c-1.233-11.101-3.3-21.386-6.051-30.519
						C166.609,76.757,169.176,76.358,171.682,76.067z M164.43,103.766c-4.707-3.24-9.631-6.362-14.751-9.317
						c-5.14-2.967-10.326-5.681-15.506-8.146c8.461-3.458,16.787-6.145,24.738-7.98C161.272,86.029,163.15,94.603,164.43,103.766z
						 M128,40.046c11.63,0,22.25,13.176,29.352,33.508c-9.426,2.21-19.335,5.562-29.352,9.931
						c-10.017-4.369-19.926-7.721-29.351-9.931C105.751,53.223,116.37,40.046,128,40.046z M97.089,78.324
						c7.951,1.836,16.277,4.522,24.737,7.98c-5.18,2.464-10.367,5.178-15.506,8.146c-5.119,2.955-10.043,6.077-14.75,9.317
						C92.85,94.603,94.729,86.029,97.089,78.324z M57.72,122.136c-10.801-14.539-14.21-27.702-9.354-36.113
						c3.957-6.854,13.389-10.532,26.48-10.532c2.975,0,6.14,0.19,9.472,0.576c2.506,0.29,5.074,0.69,7.687,1.181
						c-2.751,9.133-4.818,19.418-6.051,30.519c-8.808,6.505-16.678,13.427-23.31,20.501C60.89,126.229,59.24,124.183,57.72,122.136z
						 M85.315,149.483c-7.243-5.614-13.746-11.497-19.319-17.483c5.573-5.985,12.076-11.869,19.319-17.483
						c-0.443,5.658-0.674,11.499-0.674,17.483S84.871,143.825,85.315,149.483z M62.643,135.732
						c6.633,7.074,14.502,13.995,23.31,20.501c1.233,11.101,3.3,21.386,6.051,30.519c-2.613,0.492-5.181,0.891-7.687,1.181
						c-17.992,2.081-31.096-1.545-35.952-9.956s-1.447-21.574,9.354-36.113C59.24,139.817,60.89,137.771,62.643,135.732z"/>
				</g>
			</g>
		</g>
		<g>
			<g>
				<g>
					<path class="st1" d="M145.498,156.156c3.671,0,6.657-2.987,6.657-6.658v-34.995c0-3.671-2.986-6.658-6.657-6.658h-34.996
						c-3.671,0-6.658,2.987-6.658,6.658v34.995c0,3.671,2.987,6.658,6.658,6.658H145.498z M108.844,149.498v-34.995
						c0-0.915,0.744-1.658,1.658-1.658h34.996c0.914,0,1.657,0.744,1.657,1.658v34.995c0,0.915-0.743,1.658-1.657,1.658h-34.996
						C109.588,151.156,108.844,150.412,108.844,149.498z"/>
				</g>
			</g>
		</g>
		<g>
			<g>
				<g>
					<path class="st1" d="M128,124.13c1.381,0,2.5-1.119,2.5-2.5s-1.119-2.5-2.5-2.5h-9.963c-1.381,0-2.5,1.119-2.5,2.5
						s1.119,2.5,2.5,2.5H128z"/>
				</g>
			</g>
		</g>
		<g>
			<g>
				<g>
					<path class="st1" d="M137.964,134.5c1.381,0,2.5-1.119,2.5-2.5s-1.119-2.5-2.5-2.5h-19.927c-1.381,0-2.5,1.119-2.5,2.5
						s1.119,2.5,2.5,2.5H137.964z"/>
				</g>
			</g>
		</g>
		<g>
			<g>
				<g>
					<path class="st1" d="M137.964,144.87c1.381,0,2.5-1.119,2.5-2.5s-1.119-2.5-2.5-2.5h-19.927c-1.381,0-2.5,1.119-2.5,2.5
						s1.119,2.5,2.5,2.5H137.964z"/>
				</g>
			</g>
		</g>
	</g>
	<g>
		<g>
			<g>
				<g>
					<g>
						<g>
							<path class="st6" d="M171.36,128c0-54.367-19.046-96.954-43.36-96.954c-24.314,0-43.36,42.587-43.36,96.954
								s19.046,96.954,43.36,96.954C152.314,224.954,171.36,182.367,171.36,128z M89.64,128c0-49.844,17.567-91.954,38.36-91.954
								c20.794,0,38.36,42.109,38.36,91.954s-17.566,91.954-38.36,91.954C107.207,219.954,89.64,177.844,89.64,128z"/>
						</g>
					</g>
				</g>
				<g>
					<g>
						<g>
							<path class="st6" d="M74.699,189.52c3.207,0,6.61-0.206,10.194-0.621c19.64-2.275,42.648-10.567,64.787-23.349
								c22.139-12.781,40.824-28.562,52.614-44.433c12.223-16.454,15.656-31.226,9.67-41.595s-20.495-14.778-40.857-12.423
								c-19.64,2.275-42.648,10.567-64.787,23.349s-40.824,28.562-52.614,44.433c-12.223,16.454-15.657,31.226-9.67,41.595
								C48.968,185.021,59.687,189.52,74.699,189.52z M57.72,137.864c11.392-15.335,29.54-30.637,51.1-43.084
								s43.885-20.514,62.862-22.712c3.333-0.386,6.496-0.576,9.472-0.576c13.09,0,22.523,3.679,26.48,10.532
								c4.856,8.411,1.446,21.574-9.354,36.113c-11.393,15.336-29.54,30.637-51.101,43.084s-43.885,20.514-62.862,22.712
								c-17.992,2.083-31.096-1.545-35.952-9.956S46.919,152.403,57.72,137.864z"/>
						</g>
					</g>
				</g>
				<g>
					<g>
						<g>
							<path class="st6" d="M106.32,165.551c22.138,12.782,45.147,21.074,64.787,23.349c3.585,0.415,6.986,0.621,10.194,0.621
								c15.009,0,25.73-4.5,30.663-13.043c5.986-10.369,2.553-25.141-9.67-41.595c-11.79-15.871-30.476-31.651-52.614-44.433
								c-22.138-12.782-45.147-21.074-64.787-23.349c-20.364-2.357-34.871,2.054-40.857,12.423s-2.552,25.141,9.67,41.595
								C65.496,136.989,84.182,152.769,106.32,165.551z M48.366,82.023c3.957-6.854,13.389-10.532,26.48-10.532
								c2.975,0,6.14,0.19,9.472,0.576c18.977,2.198,41.301,10.264,62.862,22.712s39.708,27.749,51.101,43.084
								c10.8,14.539,14.21,27.702,9.354,36.113s-17.961,12.039-35.952,9.956c-18.977-2.198-41.302-10.264-62.862-22.712
								s-39.708-27.749-51.1-43.084C46.919,103.597,43.51,90.435,48.366,82.023z"/>
						</g>
					</g>
				</g>
			</g>
		</g>
		<g>
			<g>
				<g>
					<path class="st7" d="M165.219,154.957c-0.242-0.15-0.515-0.224-0.788-0.224c-0.298,0-0.595,0.089-0.851,0.264
						c-4.757,3.275-9.686,6.388-14.65,9.254c-4.986,2.879-10.168,5.601-15.401,8.09c-0.536,0.255-0.872,0.803-0.855,1.397
						c0.017,0.594,0.382,1.122,0.932,1.346c8.541,3.491,16.942,6.201,24.968,8.053c0.113,0.026,0.227,0.039,0.338,0.039
						c0.646,0,1.237-0.419,1.433-1.061c2.42-7.9,4.294-16.538,5.57-25.675C165.998,155.852,165.725,155.27,165.219,154.957z
						 M158.912,181.677c-7.952-1.836-16.277-4.522-24.738-7.98c5.18-2.464,10.367-5.178,15.506-8.146
						c5.119-2.955,10.043-6.077,14.751-9.317C163.15,165.397,161.272,173.971,158.912,181.677z"/>
					<path class="st7" d="M127.385,172.414c0.196,0.088,0.405,0.132,0.615,0.132c0.21,0,0.419-0.044,0.615-0.132
						c6.521-2.931,13.02-6.26,19.315-9.895c6.282-3.627,12.403-7.582,18.193-11.756c0.347-0.25,0.57-0.636,0.615-1.061
						c0.745-7.124,1.123-14.426,1.123-21.703s-0.378-14.579-1.123-21.703c-0.044-0.425-0.268-0.811-0.615-1.061
						c-5.79-4.174-11.911-8.129-18.193-11.756c-6.296-3.635-12.794-6.964-19.315-9.895c-0.196-0.088-0.405-0.132-0.615-0.132
						c-0.21,0-0.419,0.044-0.615,0.132c-6.521,2.931-13.02,6.26-19.315,9.895c-6.282,3.627-12.402,7.582-18.192,11.755
						c-0.347,0.25-0.57,0.636-0.615,1.061C88.518,113.42,88.14,120.722,88.14,128s0.378,14.58,1.123,21.703
						c0.044,0.425,0.268,0.811,0.615,1.061c5.79,4.174,11.911,8.129,18.192,11.755C114.365,166.154,120.864,169.483,127.385,172.414
						z M89.64,128c0-7.391,0.389-14.609,1.115-21.547c5.672-4.089,11.715-8.007,18.065-11.673c6.362-3.673,12.79-6.954,19.18-9.826
						c6.39,2.872,12.818,6.152,19.18,9.826c6.35,3.666,12.393,7.585,18.066,11.674c0.726,6.938,1.115,14.156,1.115,21.547
						s-0.389,14.609-1.115,21.547c-5.672,4.089-11.716,8.008-18.066,11.674c-6.362,3.673-12.79,6.954-19.18,9.826
						c-6.39-2.872-12.818-6.152-19.18-9.826c-6.35-3.666-12.393-7.584-18.065-11.673C90.029,142.609,89.64,135.391,89.64,128z"/>
					<path class="st7" d="M122.394,175.085c0.55-0.225,0.915-0.753,0.932-1.346c0.017-0.594-0.319-1.141-0.855-1.397
						c-5.233-2.489-10.414-5.211-15.401-8.09c-4.963-2.866-9.892-5.979-14.649-9.253c-0.256-0.176-0.553-0.264-0.851-0.264
						c-0.273,0-0.546,0.074-0.788,0.224c-0.506,0.313-0.78,0.895-0.697,1.484c1.276,9.137,3.15,17.775,5.57,25.674
						c0.197,0.642,0.788,1.061,1.433,1.061c0.112,0,0.225-0.013,0.338-0.039C105.453,181.285,113.853,178.576,122.394,175.085z
						 M91.57,156.234c4.707,3.24,9.631,6.361,14.75,9.317c5.14,2.967,10.326,5.681,15.506,8.146
						c-8.461,3.458-16.786,6.145-24.737,7.98C94.729,173.971,92.85,165.397,91.57,156.234z"/>
					<path class="st7" d="M157.694,184.985c-9.356-2.194-19.145-5.506-29.095-9.846c-0.191-0.083-0.395-0.125-0.6-0.125
						s-0.408,0.042-0.6,0.125c-9.949,4.339-19.738,7.652-29.094,9.846c-0.414,0.097-0.768,0.365-0.972,0.738
						s-0.242,0.815-0.101,1.217c7.662,21.934,18.876,34.514,30.768,34.514c11.892,0,23.107-12.58,30.768-34.514
						c0.14-0.402,0.103-0.844-0.101-1.217C158.462,185.35,158.109,185.082,157.694,184.985z M128,219.954
						c-11.63,0-22.249-13.176-29.352-33.509c9.426-2.21,19.334-5.562,29.351-9.931c10.017,4.369,19.926,7.721,29.352,9.931
						C150.25,206.777,139.63,219.954,128,219.954z"/>
					<path class="st7" d="M86.027,109.197c-0.223-0.121-0.468-0.18-0.712-0.18c-0.326,0-0.651,0.106-0.919,0.314
						c-7.313,5.668-13.873,11.605-19.498,17.646c-0.536,0.576-0.536,1.468,0,2.044c5.625,6.041,12.185,11.978,19.498,17.646
						c0.269,0.208,0.593,0.314,0.919,0.314c0.244,0,0.489-0.059,0.712-0.18c0.522-0.282,0.829-0.845,0.783-1.437
						c-0.444-5.675-0.67-11.518-0.67-17.366s0.225-11.691,0.67-17.366C86.856,110.043,86.549,109.479,86.027,109.197z
						 M85.315,145.483c-7.243-5.614-13.746-11.497-19.319-17.483c5.573-5.985,12.076-11.869,19.319-17.483
						c-0.443,5.658-0.674,11.499-0.674,17.483S84.871,139.825,85.315,145.483z"/>
					<path class="st7" d="M62.611,125.767c0.011,0,0.021,0,0.032,0c0.414,0,0.81-0.171,1.094-0.474
						c6.584-7.022,14.358-13.858,23.107-20.32c0.336-0.248,0.554-0.626,0.6-1.041c1.208-10.874,3.226-21.052,5.997-30.252
						c0.123-0.408,0.067-0.848-0.154-1.212c-0.221-0.364-0.586-0.616-1.004-0.695c-2.704-0.509-5.326-0.911-7.792-1.197
						c-3.357-0.389-6.601-0.586-9.644-0.586c-13.713,0-23.579,4.007-27.78,11.282c-5.169,8.954-1.725,22.716,9.449,37.757
						c1.492,2.008,3.171,4.099,4.99,6.215C61.783,125.569,62.185,125.758,62.611,125.767z M48.366,82.023
						c3.957-6.854,13.389-10.532,26.48-10.532c2.975,0,6.14,0.19,9.472,0.576c2.506,0.29,5.074,0.69,7.687,1.181
						c-2.751,9.133-4.818,19.418-6.051,30.519c-8.808,6.505-16.678,13.427-23.31,20.501c-1.753-2.039-3.403-4.085-4.923-6.132
						C46.919,103.597,43.51,90.435,48.366,82.023z"/>
					<path class="st7" d="M90.782,101.042c0.242,0.15,0.515,0.224,0.788,0.224c0.298,0,0.595-0.089,0.851-0.264
						c4.757-3.274,9.686-6.388,14.649-9.253c4.986-2.879,10.168-5.601,15.401-8.09c0.536-0.255,0.872-0.803,0.855-1.397
						c-0.017-0.594-0.382-1.122-0.932-1.346c-8.541-3.491-16.941-6.2-24.967-8.053c-0.113-0.026-0.227-0.039-0.338-0.039
						c-0.645,0-1.237,0.419-1.433,1.061c-2.42,7.899-4.294,16.537-5.57,25.674C90.002,100.148,90.276,100.73,90.782,101.042z
						 M97.089,74.324c7.951,1.836,16.277,4.522,24.737,7.98c-5.18,2.464-10.367,5.178-15.506,8.146
						c-5.119,2.955-10.043,6.077-14.75,9.317C92.85,90.603,94.729,82.029,97.089,74.324z"/>
					<path class="st7" d="M193.389,130.233c-0.011,0-0.021,0-0.032,0c-0.414,0-0.81,0.171-1.094,0.474
						c-6.583,7.021-14.357,13.858-23.107,20.32c-0.336,0.248-0.554,0.626-0.6,1.041c-1.208,10.874-3.226,21.053-5.997,30.252
						c-0.123,0.408-0.067,0.848,0.154,1.212s0.586,0.616,1.005,0.695c2.703,0.508,5.324,0.911,7.791,1.197
						c3.356,0.389,6.6,0.586,9.642,0.586c13.715,0,23.581-4.007,27.782-11.282c5.169-8.953,1.725-22.715-9.448-37.757
						c-1.491-2.008-3.17-4.099-4.99-6.215C194.217,130.431,193.815,130.242,193.389,130.233z M207.634,173.977
						c-3.957,6.854-13.392,10.532-26.483,10.532c-2.975,0-6.138-0.19-9.47-0.576c-2.506-0.29-5.073-0.689-7.686-1.181
						c2.751-9.133,4.818-19.418,6.051-30.519c8.808-6.505,16.678-13.426,23.31-20.5c1.753,2.039,3.403,4.085,4.923,6.131
						C209.08,152.403,212.49,165.565,207.634,173.977z"/>
					<path class="st7" d="M44.036,176.477c4.933,8.544,15.652,13.043,30.664,13.043c3.207,0,6.61-0.206,10.194-0.621
						c2.818-0.326,5.711-0.791,8.655-1.36c7.862,22.897,20.258,37.414,34.452,37.414c14.194,0,26.59-14.517,34.453-37.414
						c2.943,0.569,5.837,1.034,8.654,1.36c3.585,0.415,6.986,0.621,10.194,0.621c15.009,0,25.73-4.5,30.663-13.043
						c5.986-10.369,2.553-25.141-9.67-41.595c-1.708-2.299-3.577-4.595-5.564-6.882c1.987-2.287,3.856-4.583,5.564-6.882
						c12.223-16.454,15.656-31.226,9.67-41.595c-4.933-8.545-15.655-13.042-30.669-13.042c-3.206,0-6.606,0.205-10.189,0.619
						c-2.817,0.326-5.711,0.791-8.654,1.36C154.59,45.563,142.194,31.046,128,31.046c-14.194,0-26.59,14.517-34.452,37.414
						c-2.944-0.57-5.837-1.034-8.655-1.36c-3.583-0.415-6.987-0.62-10.193-0.62c-15.014,0-25.731,4.498-30.664,13.043
						c-5.987,10.369-2.552,25.141,9.67,41.595c1.708,2.299,3.577,4.595,5.564,6.882c-1.987,2.287-3.856,4.583-5.564,6.882
						C41.483,151.335,38.049,166.107,44.036,176.477z M60.402,128.984c0.49-0.564,0.49-1.404,0-1.968
						c-2.04-2.348-3.888-4.633-5.492-6.792c-11.844-15.944-15.245-30.132-9.576-39.95C49.978,72.231,60.132,67.98,74.7,67.98
						c3.153,0,6.524,0.205,10.021,0.61c2.649,0.307,5.523,0.759,8.542,1.343c0.096,0.018,0.191,0.027,0.286,0.027
						c0.63,0,1.207-0.398,1.418-1.013C102.91,45.814,114.95,32.546,128,32.546c13.05,0,25.09,13.268,33.034,36.401
						c0.211,0.615,0.788,1.013,1.418,1.013c0.094,0,0.19-0.009,0.286-0.027c3.019-0.584,5.893-1.036,8.541-1.343
						c3.496-0.404,6.866-0.609,10.016-0.609c14.571,0,24.727,4.251,29.37,12.292c5.669,9.819,2.268,24.007-9.575,39.95
						c-1.604,2.159-3.452,4.444-5.492,6.792c-0.49,0.564-0.49,1.404,0,1.968c2.04,2.348,3.888,4.633,5.492,6.792
						c11.843,15.943,15.244,30.131,9.575,39.95c-4.643,8.042-14.797,12.293-29.364,12.293c-3.15,0-6.522-0.205-10.022-0.611
						c-2.649-0.307-5.522-0.759-8.542-1.343c-0.096-0.018-0.191-0.027-0.286-0.027c-0.63,0-1.207,0.398-1.418,1.013
						c-7.943,23.134-19.984,36.401-33.034,36.401c-13.05,0-25.09-13.268-33.033-36.401c-0.211-0.615-0.788-1.013-1.418-1.013
						c-0.094,0-0.19,0.009-0.286,0.027c-3.02,0.584-5.894,1.036-8.542,1.343c-3.499,0.405-6.871,0.611-10.021,0.611
						c-14.567,0-24.721-4.251-29.365-12.294c-5.669-9.819-2.268-24.007,9.576-39.95C56.514,133.617,58.362,131.332,60.402,128.984z"
						/>
					<path class="st7" d="M47.067,174.727c4.2,7.275,14.067,11.281,27.782,11.281c3.042,0,6.286-0.197,9.642-0.585
						c2.466-0.286,5.088-0.688,7.792-1.197c0.418-0.079,0.783-0.331,1.004-0.695c0.221-0.364,0.277-0.804,0.154-1.212
						c-2.771-9.2-4.789-19.378-5.997-30.252c-0.046-0.415-0.264-0.793-0.6-1.041c-8.749-6.462-16.524-13.298-23.107-20.32
						c-0.284-0.303-0.68-0.474-1.094-0.474c-0.011,0-0.021,0-0.032,0c-0.426,0.009-0.827,0.199-1.105,0.522
						c-1.82,2.116-3.499,4.207-4.99,6.215C45.341,152.011,41.898,165.773,47.067,174.727z M57.72,137.864
						c1.521-2.047,3.17-4.093,4.923-6.132c6.633,7.074,14.502,13.995,23.31,20.501c1.233,11.101,3.3,21.386,6.051,30.519
						c-2.613,0.492-5.181,0.891-7.687,1.181c-3.331,0.385-6.495,0.575-9.469,0.575c-13.093,0-22.526-3.677-26.483-10.531
						C43.51,165.565,46.919,152.403,57.72,137.864z"/>
					<path class="st7" d="M168.556,103.933c0.046,0.415,0.264,0.793,0.6,1.041c8.75,6.462,16.524,13.298,23.107,20.32
						c0.284,0.303,0.68,0.474,1.094,0.474c0.011,0,0.021,0,0.032,0c0.426-0.009,0.827-0.199,1.105-0.522
						c1.82-2.116,3.498-4.207,4.99-6.215c11.174-15.042,14.618-28.804,9.448-37.757c-4.201-7.275-14.066-11.282-27.779-11.282
						c-3.042,0-6.286,0.197-9.644,0.586c-2.466,0.286-5.088,0.688-7.791,1.197c-0.418,0.079-0.784,0.331-1.005,0.695
						s-0.277,0.804-0.154,1.212C165.33,82.88,167.348,93.059,168.556,103.933z M171.682,72.067c3.333-0.386,6.496-0.576,9.472-0.576
						c13.09,0,22.523,3.679,26.48,10.532c4.856,8.411,1.446,21.574-9.354,36.113c-1.521,2.047-3.17,4.093-4.923,6.131
						c-6.632-7.074-14.502-13.995-23.31-20.5c-1.233-11.101-3.3-21.386-6.051-30.519C166.609,72.757,169.176,72.358,171.682,72.067z
						"/>
					<path class="st7" d="M169.974,146.802c0.223,0.121,0.468,0.18,0.712,0.18c0.326,0,0.651-0.106,0.919-0.314
						c7.313-5.668,13.873-11.605,19.498-17.646c0.536-0.576,0.536-1.468,0-2.044c-5.625-6.041-12.185-11.977-19.498-17.646
						c-0.269-0.208-0.593-0.314-0.919-0.314c-0.244,0-0.489,0.059-0.712,0.18c-0.522,0.282-0.829,0.845-0.783,1.437
						c0.444,5.674,0.67,11.517,0.67,17.365s-0.225,11.691-0.67,17.365C169.144,145.957,169.451,146.52,169.974,146.802z
						 M170.686,110.518c7.243,5.614,13.746,11.497,19.319,17.482c-5.573,5.985-12.076,11.869-19.319,17.482
						c0.443-5.657,0.674-11.498,0.674-17.482S171.129,116.175,170.686,110.518z"/>
					<path class="st7" d="M133.606,80.915c-0.55,0.225-0.915,0.753-0.932,1.346c-0.017,0.594,0.319,1.141,0.855,1.397
						c5.233,2.489,10.415,5.211,15.401,8.09c4.964,2.866,9.893,5.979,14.65,9.254c0.256,0.176,0.553,0.264,0.851,0.264
						c0.273,0,0.546-0.074,0.788-0.224c0.506-0.313,0.78-0.895,0.697-1.484c-1.276-9.137-3.15-17.775-5.57-25.675
						c-0.197-0.642-0.788-1.061-1.433-1.061c-0.112,0-0.225,0.013-0.338,0.039C150.547,74.715,142.146,77.424,133.606,80.915z
						 M164.43,99.766c-4.707-3.24-9.631-6.362-14.751-9.317c-5.14-2.967-10.326-5.681-15.506-8.146
						c8.461-3.458,16.787-6.145,24.738-7.98C161.272,82.029,163.15,90.603,164.43,99.766z"/>
					<path class="st7" d="M98.306,71.016c9.356,2.194,19.145,5.506,29.094,9.846c0.191,0.083,0.395,0.125,0.6,0.125
						s0.409-0.042,0.6-0.125c9.95-4.34,19.739-7.652,29.095-9.846c0.414-0.097,0.768-0.365,0.972-0.738s0.242-0.815,0.101-1.217
						C151.107,47.126,139.892,34.546,128,34.546c-11.892,0-23.106,12.58-30.768,34.514c-0.14,0.402-0.103,0.844,0.101,1.217
						S97.892,70.918,98.306,71.016z M128,36.046c11.63,0,22.25,13.176,29.352,33.508c-9.426,2.21-19.335,5.562-29.352,9.931
						c-10.017-4.369-19.926-7.721-29.351-9.931C105.751,49.223,116.37,36.046,128,36.046z"/>
				</g>
			</g>
		</g>
		<g>
			<g>
				<g>
					<g>
						<path class="st2" d="M145.498,152.156c3.671,0,6.657-2.987,6.657-6.658v-34.995c0-3.671-2.986-6.658-6.657-6.658h-34.996
							c-3.671,0-6.658,2.987-6.658,6.658v34.995c0,3.671,2.987,6.658,6.658,6.658H145.498z M108.844,145.498v-34.995
							c0-0.915,0.744-1.658,1.658-1.658h34.996c0.914,0,1.657,0.744,1.657,1.658v34.995c0,0.915-0.743,1.658-1.657,1.658h-34.996
							C109.588,147.156,108.844,146.412,108.844,145.498z"/>
					</g>
				</g>
			</g>
			<g>
				<g>
					<g>
						<path class="st4" d="M128,120.13c1.381,0,2.5-1.119,2.5-2.5s-1.119-2.5-2.5-2.5h-9.963c-1.381,0-2.5,1.119-2.5,2.5
							s1.119,2.5,2.5,2.5H128z"/>
					</g>
				</g>
			</g>
			<g>
				<g>
					<g>
						<path class="st4" d="M137.964,130.5c1.381,0,2.5-1.119,2.5-2.5s-1.119-2.5-2.5-2.5h-19.927c-1.381,0-2.5,1.119-2.5,2.5
							s1.119,2.5,2.5,2.5H137.964z"/>
					</g>
				</g>
			</g>
			<g>
				<g>
					<g>
						<path class="st4" d="M137.964,140.87c1.381,0,2.5-1.119,2.5-2.5s-1.119-2.5-2.5-2.5h-19.927c-1.381,0-2.5,1.119-2.5,2.5
							s1.119,2.5,2.5,2.5H137.964z"/>
					</g>
				</g>
			</g>
		</g>
		<g>
			<g>
				<g>
					<g>
						<path class="st3" d="M145.498,152.156c3.671,0,6.657-2.987,6.657-6.658v-34.995c0-3.671-2.986-6.658-6.657-6.658h-34.996
							c-3.671,0-6.658,2.987-6.658,6.658v34.995c0,3.671,2.987,6.658,6.658,6.658H145.498z M105.344,145.498v-34.995
							c0-2.844,2.314-5.158,5.158-5.158h34.996c2.844,0,5.157,2.314,5.157,5.158v34.995c0,2.844-2.314,5.158-5.157,5.158h-34.996
							C107.658,150.656,105.344,148.342,105.344,145.498z"/>
						<path class="st3" d="M145.498,148.656c1.741,0,3.157-1.417,3.157-3.158v-34.995c0-1.741-1.416-3.158-3.157-3.158h-34.996
							c-1.741,0-3.158,1.417-3.158,3.158v34.995c0,1.741,1.417,3.158,3.158,3.158H145.498z M108.844,145.498v-34.995
							c0-0.915,0.744-1.658,1.658-1.658h34.996c0.914,0,1.657,0.744,1.657,1.658v34.995c0,0.915-0.743,1.658-1.657,1.658h-34.996
							C109.588,147.156,108.844,146.412,108.844,145.498z"/>
					</g>
				</g>
			</g>
			<g>
				<g>
					<g>
						<path class="st5" d="M128,120.13c1.381,0,2.5-1.119,2.5-2.5s-1.119-2.5-2.5-2.5h-9.963c-1.381,0-2.5,1.119-2.5,2.5
							s1.119,2.5,2.5,2.5H128z M117.037,117.63c0-0.551,0.449-1,1-1H128c0.551,0,1,0.449,1,1s-0.449,1-1,1h-9.963
							C117.485,118.63,117.037,118.181,117.037,117.63z"/>
					</g>
				</g>
			</g>
			<g>
				<g>
					<g>
						<path class="st5" d="M137.964,130.5c1.381,0,2.5-1.119,2.5-2.5s-1.119-2.5-2.5-2.5h-19.927c-1.381,0-2.5,1.119-2.5,2.5
							s1.119,2.5,2.5,2.5H137.964z M117.037,128c0-0.551,0.449-1,1-1h19.927c0.551,0,1,0.449,1,1s-0.449,1-1,1h-19.927
							C117.485,129,117.037,128.551,117.037,128z"/>
					</g>
				</g>
			</g>
			<g>
				<g>
					<g>
						<path class="st5" d="M137.964,140.87c1.381,0,2.5-1.119,2.5-2.5s-1.119-2.5-2.5-2.5h-19.927c-1.381,0-2.5,1.119-2.5,2.5
							s1.119,2.5,2.5,2.5H137.964z M117.037,138.37c0-0.551,0.449-1,1-1h19.927c0.551,0,1,0.449,1,1s-0.449,1-1,1h-19.927
							C117.485,139.37,117.037,138.922,117.037,138.37z"/>
					</g>
				</g>
			</g>
		</g>
	</g>
</g>
</svg>
